<?xml version="1.0" encoding="utf-8"?>
<!-- Generator: Adobe Illustrator 19.2.0, SVG Export Plug-In . SVG Version: 6.00 Build 0)  -->
<svg version="1.1" id="Layer_1" xmlns="http://www.w3.org/2000/svg" xmlns:xlink="http://www.w3.org/1999/xlink" x="0px" y="0px"
	 viewBox="0 0 100 100" style="enable-background:new 0 0 100 100;" xml:space="preserve">
<style type="text/css">
	.st0{fill:#FFFFFF;}
	.st1{fill:none;}
	.st2{fill:#F03F55;}
</style>
<g>
	<circle class="st0" cx="49.1" cy="50" r="38.2"/>
	<path class="st1" d="M73.7,73.8v-2.1c-0.3,0.4-0.7,0.7-1,1.1L73.7,73.8z"/>
	<path class="st2" d="M49.9,1.2C22.9,1.2,1,23.1,1,50.1S22.9,99,49.9,99s48.9-21.9,48.9-48.9S76.9,1.2,49.9,1.2z M73.7,73.8l-1-1
		L67.9,68c-4.6,4.6-11,7.4-18,7.4c-14,0-25.4-11.4-25.4-25.4c0-14.1,11.4-25.4,25.4-25.4c8.9,0,16.8,4.7,21.4,11.6l-8.6,5.6
		c-2.7-4.2-7.4-6.9-12.8-6.9c-8.4,0-15.3,6.8-15.3,15.3s6.8,15.3,15.3,15.3c4.2,0,8-1.7,10.8-4.5l-5.8-5.8h18.8v16.6V73.8z"/>
</g>
</svg>
